<?xml version="1.0" encoding="UTF-8" standalone="no"?>
<svg
   xmlns:dc="http://purl.org/dc/elements/1.1/"
   xmlns:cc="http://creativecommons.org/ns#"
   xmlns:rdf="http://www.w3.org/1999/02/22-rdf-syntax-ns#"
   xmlns:svg="http://www.w3.org/2000/svg"
   xmlns="http://www.w3.org/2000/svg"
   viewBox="0 0 375.00009 375.00009"
   id="svg9"
   height="375.00009"
   width="375.00009"
   version="1.1">
  <metadata
     id="metadata15">
    <rdf:RDF>
      <cc:Work
         rdf:about="">
        <dc:format>image/svg+xml</dc:format>
        <dc:type
           rdf:resource="http://purl.org/dc/dcmitype/StillImage" />
      </cc:Work>
    </rdf:RDF>
  </metadata>
  <defs
     id="defs13" />
  <g
     id="Layer1000">
    <path
       id="path2"
       style="fill:#bbb9b6;fill-rule:evenodd"
       d="m 83.6986,80.3712 c -0.8724,0.4399 -4.4312,5.253 -4.9621,5.9606 -0.5404,0.7205 -1.0307,1.3744 -1.5783,2.104 -1.8182,2.4223 -3.6279,4.9055 -5.3037,7.4359 -0.2542,0.3839 -0.482,0.7241 -0.756,1.135 l -2.9257,4.3397 c -0.2475,0.3734 -0.4705,0.6517 -0.7372,1.0543 -0.2728,0.4119 -0.5005,0.7515 -0.7561,1.1348 -0.2412,0.3619 -0.4629,0.6962 -0.7169,1.0747 -3.2154,4.7913 -6.2069,9.6876 -9.3757,14.5107 l -2.8271,4.5379 c -0.9191,1.5288 -1.821,2.9698 -2.7635,4.5019 -0.9611,1.5621 -1.8054,3.0555 -2.748,4.617 -2.5014,4.1434 -5.6373,9.5651 -8.0102,13.9852 l -2.5885,4.7766 c -1.6097,3.2227 -3.4053,6.3878 -5.009,9.6214 l -6.4696,13.5353 c -1.9041,3.8285 -5.9465,13.8266 -7.1073,16.8786 -0.3444,0.9056 -0.6449,1.6719 -0.9957,2.5873 l -2.9058,8.1416 c -0.1653,0.4956 -0.2795,0.8605 -0.465,1.3266 -0.1873,0.4709 -0.305,0.9891 -0.455,1.436 l -2.6011,8.4464 c -2.529,9.0544 -5.2277,20.5904 -6.0624,30.5634 -0.048,0.573 -0.0603,1.0686 -0.136,1.6554 -0.0519,0.4026 -0.1605,1.2617 -0.1721,1.7189 -0.0385,1.5023 -0.3074,3.7127 -0.2991,5.1749 0.0033,0.5685 0.032,1.2355 0.0019,1.7934 -0.1553,2.8759 0.0094,4.4183 -8e-4,7.1657 l 0.0993,2.5879 c 0.1178,2.1915 0.4603,5.3829 0.7537,7.5071 0.5843,4.2309 1.3408,8.2182 2.452,12.2778 0.2464,0.9 0.5242,1.9172 0.838,2.8447 0.3289,0.9723 0.5369,1.851 0.904,2.7784 0.3558,0.8988 0.607,1.717 0.9675,2.6155 1.0507,2.6189 2.1434,5.1112 3.4077,7.6398 1.6126,3.2253 3.5029,6.258 5.4873,9.2426 0.2608,0.3924 0.4749,0.672 0.7362,1.0553 l 1.5157,2.0672 c 1.3186,1.7636 2.7548,3.4025 4.167,5.089 l 2.6329,2.8411 c 2.4405,2.4264 4.9136,4.8755 7.6324,6.9981 3.7365,2.9173 5.6606,4.3898 9.5696,6.9518 1.8653,1.2225 3.7829,2.3556 5.7468,3.4097 0.2324,0.1247 0.3691,0.1724 0.5964,0.2994 l 1.7608,0.9263 c 0.4194,0.2183 0.7512,0.4277 1.2263,0.6648 l 5.0092,2.3556 c 2.5243,1.1796 5.1849,2.2689 7.8337,3.2138 0.4733,0.1689 0.8313,0.3122 1.2986,0.4929 l 4.0762,1.3978 c 2.8036,0.9349 5.6457,1.82 8.5218,2.5257 1.9568,0.4802 3.8464,0.9844 5.9115,1.4534 6.1783,1.4031 12.3921,2.3906 18.7281,3.2675 2.2148,0.3064 4.4708,0.4458 6.6395,0.7252 l 6.8901,0.5255 c 0.5198,-1.3058 3.6885,-1.5886 5.3274,-1.7702 2.1606,-0.2393 4.3811,-0.3779 6.5616,-0.4955 13.5593,-0.7308 25.0816,-1.4192 38.6006,-3.8185 22.7584,-4.0392 42.6121,-11.648 60.3084,-24.4951 4.0952,-2.973 7.8438,-6.2421 11.536,-9.6649 0.319,-0.2957 0.5431,-0.6154 0.868,-0.9205 0.3351,-0.3149 0.5808,-0.5623 0.9038,-0.8887 l 4.7301,-5.0264 c 1.1963,-1.336 2.0749,-3.0724 3.1344,-4.7273 1.2706,-1.9846 11.2614,-17.6908 12.2378,-19.6062 1.0599,-2.0795 2.2835,-5.6098 2.6389,-7.9095 -0.6594,-0.3239 -4.5486,-0.9719 -5.5523,-1.1121 -3.0442,-0.425 -7.3241,-1.0148 -10.3766,-1.268 l -13.8408,-1.2872 c -1.0836,-0.114 -2.0606,-0.102 -3.1274,-0.2565 l -6.1209,-0.5473 c -0.6147,-0.048 -0.9628,-0.0669 -1.5774,-0.1147 l -13.8446,-1.2833 c -2.5261,-0.14 -6.3858,-0.6613 -9.1508,-0.9015 l -26.969,-3.2871 c -5.8989,-0.8172 -11.4829,-1.8147 -17.2959,-2.8086 -5.8756,-1.0046 -16.6391,-3.374 -21.9807,-4.8915 -0.8972,-0.2549 -1.6754,-0.4546 -2.5732,-0.7112 -0.9382,-0.268 -1.6982,-0.5025 -2.6233,-0.7606 -4.3807,-1.2214 -11.0075,-3.6673 -14.878,-5.326 -6.4267,-2.754 -10.5609,-5.149 -15.8975,-9.2826 l -2.6118,-2.3647 c -1.1964,-1.1961 -1.7597,-2.2451 -2.9188,-2.9533 -0.4848,-0.2961 -2.3011,-1.4416 -2.5303,-1.7446 -0.629,-0.1664 -3.2322,-2.4198 -3.8528,-2.919 l -3.5626,-3.2068 c -0.6004,-0.5606 -1.1288,-1.0924 -1.6922,-1.69 l -1.6455,-1.7367 c -1.037,-1.1759 -2.0461,-2.3452 -3.0844,-3.5881 -2.5393,-3.0399 -6.2913,-8.1688 -8.3961,-11.8064 -0.793,-1.3704 -1.6801,-2.7343 -2.4372,-4.23 -3.3819,-6.6808 -5.7904,-11.7098 -7.7176,-19.2597 -0.9325,-3.6526 -1.6123,-7.6447 -1.7881,-11.619 -0.0903,-2.0417 0.1738,-4.3048 0.3173,-6.3524 0.6986,-9.9812 1.6016,-20.7455 3.1932,-30.452 1.4043,-8.564 2.839,-13.0582 6.0843,-20.7832 1.2881,-3.0664 2.9398,-6.1908 4.3885,-9.1523 1.4901,-3.0463 2.9061,-5.9892 4.3842,-9.0435 0.7347,-1.5183 1.3931,-3.0874 2.1204,-4.6496 0.9913,-2.1297 3.788,-9.9358 4.4305,-12.3912 0.2773,-1.0598 0.7478,-2.4703 -0.3959,-1.8636 z" />
    <path
       id="path4"
       style="fill:#f59600;fill-rule:evenodd"
       d="m 83.6986,80.3712 c 1.1437,-0.6067 0.6732,0.8038 0.3959,1.8636 -0.6425,2.4554 -3.4392,10.2615 -4.4305,12.3912 -0.7273,1.5622 -1.3857,3.1313 -2.1204,4.6496 -1.4781,3.0543 -2.8941,5.9972 -4.3842,9.0435 -1.4487,2.9615 -3.1004,6.0859 -4.3885,9.1523 -3.2453,7.725 -4.68,12.2192 -6.0843,20.7832 -1.5916,9.7065 -2.4946,20.4708 -3.1932,30.452 -0.1435,2.0476 -0.4076,4.3107 -0.3173,6.3524 0.1758,3.9743 0.8556,7.9664 1.7881,11.619 1.9272,7.5499 4.3357,12.5789 7.7176,19.2597 0.7571,1.4957 1.6442,2.8596 2.4372,4.23 2.1048,3.6376 5.8568,8.7665 8.3961,11.8064 1.0383,1.2429 2.0474,2.4122 3.0844,3.5881 l 1.6455,1.7367 c 0.5634,0.5976 1.0918,1.1294 1.6922,1.69 l 3.5626,3.2068 c 0.6206,0.4992 3.2238,2.7526 3.8528,2.919 0.3513,-1.5419 4.0794,-8.4086 5.2948,-10.4352 1.4207,-2.3694 2.9473,-5.0987 4.4588,-7.3848 l 1.1533,-1.8325 c 0.156,-0.2379 0.2491,-0.3553 0.3972,-0.5981 2.7386,-4.4921 7.8801,-12.0576 11.0891,-16.5793 l 4.8765,-6.9673 c 2.2888,-3.2445 5.0916,-7.2377 7.4512,-10.364 3.085,-4.0877 6.0947,-8.3795 9.2688,-12.5275 0.8902,-1.1633 2.6434,-3.3796 3.5611,-4.3017 l 5.92,-5.9236 c 0.6827,-0.6829 1.248,-1.3594 2.0232,-1.958 l 5.7897,-6.054 c 0.695,-0.6947 1.2358,-1.3426 1.9412,-2.0398 l 8.7583,-9.0569 c 0.4296,-0.4247 0.944,-1.1272 1.4528,-1.5331 0.978,-0.7802 2.9351,-2.8985 3.969,-3.8935 l 8.8151,-8.005 c 1.5533,-1.3143 3.9099,-3.3417 5.4579,-4.4949 l 3.3275,-2.5445 c 2.0536,-1.5393 5.9114,-4.2458 8.2082,-5.6259 l 5.6698,-3.2876 c 0.2566,-0.1329 0.3578,-0.2208 0.6286,-0.3667 l 6.6632,-3.19 c 0.9672,-0.4132 1.8145,-0.7643 2.8162,-1.1649 l 2.9329,-1.0522 -0.0288,-0.6956 c 2.5341,-1.9728 7.6726,-4.2806 10.8319,-5.3194 13.5661,-4.4604 28.7435,-2.4412 41.7412,1.6353 8.5884,2.6935 14.7913,5.7321 22.5175,9.8303 4.3319,2.2978 10.7985,6.528 14.7612,9.4234 2.1677,1.5839 4.8266,3.5631 6.8662,5.2781 2.1231,1.7852 3.9152,3.2636 5.9123,5.1314 l 9.6102,9.6036 2.8439,3.2269 c 0.6712,0.7687 1.1834,1.3996 1.8084,2.1711 0.6287,0.7758 1.2086,1.4662 1.8075,2.2722 2.6436,3.5581 4.2415,5.707 6.658,9.5683 7.1571,11.4364 13.8605,24.6599 19.0715,37.459 l 2.3969,5.7636 c -0.0707,-0.8549 -0.6461,-2.3881 -0.9342,-3.2474 l -0.9927,-3.1876 c -0.7379,-2.5076 -2.4979,-7.3176 -2.7572,-9.783 -0.0625,-0.5945 -0.2707,-1.0914 -0.454,-1.6362 -0.1898,-0.5642 -0.3087,-1.0291 -0.4973,-1.5927 -0.7183,-2.1452 -1.4751,-4.1419 -2.2421,-6.2177 -1.0917,-2.9542 -2.3693,-5.9818 -3.6693,-8.8711 -0.8625,-1.9169 -1.6982,-3.9242 -2.6525,-5.8073 l -2.7203,-5.6399 c -1.5118,-3.0236 -3.3105,-6.8991 -4.9719,-9.758 l -6.641,-12.2691 c -0.5264,-0.9479 -1.029,-1.7828 -1.5552,-2.7244 -1.0157,-1.8168 -2.0104,-3.5262 -3.0735,-5.2868 -0.2732,-0.4525 -0.5129,-0.8885 -0.7718,-1.3184 -2.8891,-4.7982 -5.8574,-9.5688 -8.963,-14.2266 L 303.4226,85.7512 c -0.6501,-0.7962 -1.1882,-1.553 -1.8372,-2.3428 -0.646,-0.7864 -1.1851,-1.5544 -1.8451,-2.3352 -1.616,-1.912 -3.1068,-3.9075 -4.7721,-5.7776 l -5.3729,-6.1722 c -0.8156,-0.9231 -1.6026,-1.9172 -2.4893,-2.7857 l -1.4918,-1.5934 c -0.2149,-0.244 -0.2524,-0.3518 -0.4964,-0.5983 l -3.1326,-3.2372 c -1.5406,-1.8429 -4.4669,-4.5518 -6.2249,-6.3155 l -7.6535,-7.0765 c -0.2096,-0.1677 -0.3032,-0.3072 -0.5123,-0.483 l -3.4288,-2.9408 c -0.92,-0.8552 -1.9178,-1.5804 -2.8808,-2.3943 -0.4107,-0.3471 -0.7354,-0.6037 -1.1483,-0.9416 l -2.3222,-1.858 c -0.439,-0.3301 -0.7419,-0.5809 -1.181,-0.9091 -0.4571,-0.3418 -0.8095,-0.6097 -1.2375,-0.952 -0.7815,-0.6252 -1.6098,-1.1816 -2.4023,-1.7778 -0.797,-0.5999 -1.5947,-1.1412 -2.4307,-1.7494 l -7.5267,-5.0137 c -3.5294,-2.1134 -7.0273,-4.2671 -10.7111,-6.109 -0.9683,-0.4842 -1.8183,-0.9092 -2.7867,-1.3934 -3.3124,-1.6563 -6.7617,-3.1916 -10.2728,-4.4571 l -3.0826,-1.0975 c -0.4869,-0.1826 -0.9777,-0.3618 -1.5436,-0.5466 -6.6277,-2.1643 -13.6598,-3.8193 -20.8556,-4.4241 -2.5891,-0.2176 -5.2915,-0.3894 -7.9708,-0.3894 -2.0982,0 -4.184,-0.0984 -6.198,0.1717 -0.6432,0.0862 -1.3159,0.0854 -1.9557,0.1344 l -3.7198,0.4602 c -3.5453,0.5925 -7.0339,1.2077 -10.4326,2.2074 -5.7444,1.6895 -11.3192,3.7721 -16.6421,6.448 -3.1865,1.602 -6.3744,3.3045 -9.3627,5.2679 -0.8764,0.5757 -1.7045,1.0708 -2.5472,1.6327 l -3.7821,2.5877 c -0.4338,0.2854 -0.7747,0.5771 -1.214,0.8761 -0.8323,0.5663 -1.5847,1.1729 -2.3973,1.7828 -0.8258,0.6198 -1.5536,1.2007 -2.3473,1.8329 l -1.7611,1.4237 c -0.2228,0.1739 -0.4004,0.308 -0.6098,0.4849 l -2.2502,1.9301 c -2.6527,2.2437 -5.2117,4.5983 -7.6577,7.0721 -0.8467,0.8565 -1.8154,1.6521 -2.5931,2.5824 -0.8031,0.9609 -1.8245,1.6699 -2.6003,2.6747 l -6.005,6.6348 c -1.1271,1.2041 -2.682,3.2565 -3.8368,4.6229 -1.9184,2.2697 -3.7129,4.6555 -5.5002,7.0402 l -6.1336,8.5964 c -0.2991,0.4487 -0.562,0.798 -0.8572,1.2329 -0.5231,0.7703 -1.3384,1.7844 -1.7106,2.5943 z" />
    <path
       id="path6"
       style="fill:#ea550f;fill-rule:evenodd"
       d="m 215.277,103.9337 c 1.1074,5.1881 3.4594,9.0777 5.7354,13.6682 l 1.8562,3.4187 c 0.4459,0.8028 0.8214,1.545 1.2667,2.3164 0.4275,0.7406 0.8197,1.4365 1.2577,2.2257 2.497,4.4994 5.2502,9.0124 7.5625,13.6366 l 6.6998,14.4995 c 1.8411,4.0919 3.5024,8.4356 5.274,12.4418 0.3574,0.8083 0.6701,1.6398 1.011,2.4723 l 5.2051,12.6101 c 2.7526,6.8326 5.8948,17.1868 7.7982,23.951 2.0056,7.1279 3.2834,12.7693 4.9375,19.9442 1.2719,5.5175 2.3463,12.3526 3.1633,18.0359 0.2923,2.0347 0.489,4.255 0.7502,6.3162 0.2142,1.6887 0.3372,4.0167 0.4261,5.7445 0.0222,0.4308 0.0771,0.3638 0.1004,0.7953 0.1034,1.9155 0.211,9.9553 -0.0726,12.0705 -0.0631,0.4697 -0.1083,1.2489 -0.1262,1.6654 -0.1073,2.5023 -0.7319,4.5874 -0.9004,6.2695 -0.3554,2.2997 -1.579,5.83 -2.6389,7.9095 -0.9764,1.9154 -10.9672,17.6216 -12.2378,19.6062 -1.0595,1.6549 -1.9381,3.3913 -3.1344,4.7273 l -4.7301,5.0264 c -0.323,0.3264 -0.5687,0.5738 -0.9038,0.8887 -0.3249,0.3051 -0.549,0.6248 -0.868,0.9205 -3.6922,3.4228 -7.4408,6.6919 -11.536,9.6649 -17.6963,12.8471 -37.55,20.4559 -60.3084,24.4951 -13.519,2.3993 -25.0413,3.0877 -38.6006,3.8185 -2.1805,0.1176 -4.401,0.2562 -6.5616,0.4955 -1.6389,0.1816 -4.8076,0.4644 -5.3274,1.7702 0.3652,0.0102 0.9271,0.1462 1.3289,0.2131 0.4557,0.0758 0.9318,0.1629 1.4494,0.2425 0.9886,0.1523 1.977,0.2932 2.8735,0.4109 l 9.0201,0.9326 c 0.908,0.0707 2.2543,0.1466 3.1202,0.2638 0.9964,0.1348 2.1743,0.0743 3.0852,0.199 1.0209,0.1399 2.1908,0.0687 3.2577,0.1263 0.5145,0.0277 0.8331,0.1041 1.4922,0.1002 l 3.1864,0.098 c 0.6975,-0.004 0.9473,0.1034 1.5877,0.1042 2.3041,0.003 4.2694,0.0962 6.5722,0.0962 h 11.75 c 0.6215,-0.006 0.9568,-0.087 1.4837,-0.1028 1.0821,-0.0324 2.2043,0.0206 3.2917,0.007 0.5842,-0.007 0.8177,-0.1086 1.4876,-0.1048 0.565,0.003 1.1304,0.001 1.6955,0.004 0.66,0.003 0.8582,-0.1044 1.4872,-0.1052 0.5578,-8e-4 1.1448,0.0233 1.6986,0.007 0.5566,-0.0167 0.8976,-0.1065 1.5889,-0.1031 0.6773,0.003 1.0694,-0.0503 1.598,-0.094 l 9.477,-0.4756 c 1.1289,-0.1544 5.4953,-0.3103 7.0337,-0.4309 l 3.7885,-0.2921 c 1.2975,-0.0333 3.0523,-0.33 4.676,-0.3998 l 9.086,-0.8666 c 1.0484,-0.1329 2.0825,-0.223 3.0663,-0.3178 8.0292,-0.7742 15.8274,-1.927 23.5621,-3.0116 10.8243,-1.5176 22.9224,-3.8869 33.5174,-6.2931 3.6759,-0.8348 7.1369,-1.7762 10.6889,-2.6477 5.9987,-1.4719 14.2857,-4.2092 20.2156,-6.3581 4.7626,-1.726 9.373,-3.7583 13.8902,-6.0153 4.2053,-2.1012 8.4444,-4.9294 12.2745,-7.6308 1.7905,-1.263 3.8975,-2.9152 5.6035,-4.349 l 3.5791,-3.0893 c 0.2918,-0.2808 0.4991,-0.5278 0.7929,-0.7995 1.4367,-1.3289 2.9267,-2.668 4.1859,-4.1744 0.2399,-0.287 0.5223,-0.5297 0.7932,-0.7992 1.0857,-1.0803 4.7659,-5.618 5.3481,-6.396 3.8811,-5.187 6.0982,-8.8128 8.8579,-14.3319 3.3083,-6.6167 6.2859,-15.3099 7.4778,-22.4797 0.3052,-1.8364 0.6645,-3.7065 0.8909,-5.678 l 0.4744,-4.5017 c 0.0292,-0.2664 0.002,-0.5182 0.0148,-0.7815 0.021,-0.4322 0.0768,-0.363 0.1,-0.7958 0.5922,-11.1024 -0.411,-19.5944 -2.5953,-30.2495 -0.3702,-1.8057 -0.8807,-3.5566 -1.3271,-5.3413 -1.162,-4.6467 -3.249,-10.5124 -4.9784,-15.0265 -0.3197,-0.8346 -0.5764,-1.5464 -0.91,-2.3744 l -0.9386,-2.4437 -2.3969,-5.7636 c -5.211,-12.7991 -11.9144,-26.0226 -19.0715,-37.459 -2.4165,-3.8613 -4.0144,-6.0102 -6.658,-9.5683 -0.5989,-0.806 -1.1788,-1.4964 -1.8075,-2.2722 -0.625,-0.7715 -1.1372,-1.4024 -1.8084,-2.1711 l -2.8439,-3.2269 -9.6102,-9.6036 c -1.9971,-1.8678 -3.7892,-3.3462 -5.9123,-5.1314 -2.0396,-1.715 -4.6985,-3.6942 -6.8662,-5.2781 -3.9627,-2.8954 -10.4293,-7.1256 -14.7612,-9.4234 -7.7262,-4.0982 -13.9291,-7.1368 -22.5175,-9.8303 -12.9977,-4.0765 -28.1751,-6.0957 -41.7412,-1.6353 -3.1593,1.0388 -8.2978,3.3466 -10.8319,5.3194 z" />
  </g>
</svg>
